<svg width="177" height="177" viewBox="0 0 177 177" fill="none" xmlns="http://www.w3.org/2000/svg">
<path fill-rule="evenodd" clip-rule="evenodd" d="M26.4545 26.2249C60.7255 -7.99778 116.436 -7.6339 150.917 26.8467C185.412 61.3422 185.761 117.086 151.494 151.353C117.227 185.62 61.4832 185.271 26.9877 150.776C6.54567 130.334 -1.89581 102.445 1.72904 75.9999C2.23696 72.2943 5.65271 69.702 9.35832 70.21C13.0639 70.7179 15.6562 74.1336 15.1482 77.8393C12.0784 100.236 19.2229 123.856 36.5653 141.198C65.8622 170.495 113.029 170.663 141.917 141.776C170.804 112.888 170.636 65.7212 141.339 36.4243C112.057 7.1423 64.9232 6.95967 36.0321 35.8024L42.7837 35.8364C46.5239 35.8551 49.5407 38.9024 49.5219 42.6426C49.5031 46.3828 46.4558 49.3996 42.7156 49.3809L19.7298 49.2653C16.0162 49.2467 13.0103 46.2408 12.9916 42.5271L12.8761 19.5414C12.8573 15.8011 15.8741 12.7539 19.6143 12.7351C23.3545 12.7163 26.4018 15.7331 26.4206 19.4733L26.4545 26.2249ZM88.9514 45.9189C92.6917 45.9189 95.7237 48.951 95.7237 52.6913V86.0052L116.315 106.596C118.959 109.241 118.959 113.529 116.315 116.174C113.67 118.818 109.382 118.818 106.737 116.174L82.1791 91.6156V52.6913C82.1791 48.951 85.2111 45.9189 88.9514 45.9189Z" fill="#F0073B"/>
</svg>
