<svg width="177" height="245" viewBox="0 0 177 245" fill="white" xmlns="http://www.w3.org/2000/svg">
<path d="M56.8002 167.56C56.8002 162.855 60.6147 159.04 65.3202 159.04H110.76C115.466 159.04 119.28 162.855 119.28 167.56C119.28 172.266 115.466 176.08 110.76 176.08H65.3202C60.6147 176.08 56.8002 172.266 56.8002 167.56Z" fill="#F0073B"/>
<path fill-rule="evenodd" clip-rule="evenodd" d="M101.391 77.8326C94.0889 70.1279 81.9916 70.1279 74.6894 77.8326C71.1954 81.5192 66.9322 86.4116 63.4893 91.6271C60.2581 96.522 56.8002 103.083 56.8002 109.813C56.8002 127.258 70.4624 142 88.0402 142C105.618 142 119.28 127.258 119.28 109.813C119.28 103.083 115.822 96.522 112.591 91.6271C109.148 86.4116 104.885 81.5192 101.391 77.8326ZM87.0573 89.5543C87.3901 89.2032 87.7384 89.0941 88.0402 89.0941C88.3421 89.0941 88.6904 89.2032 89.0232 89.5543C92.1878 92.8934 95.7012 96.9716 98.3702 101.015C101.251 105.379 102.24 108.364 102.24 109.813C102.24 118.509 95.5582 124.959 88.0402 124.959C80.5222 124.959 73.8402 118.509 73.8402 109.813C73.8402 108.364 74.8296 105.379 77.7102 101.015C80.3792 96.9716 83.8926 92.8934 87.0573 89.5543Z" fill="#F0073B"/>
<path fill-rule="evenodd" clip-rule="evenodd" d="M57.9761 22.7201C61.6848 9.60772 73.7405 0 88.0402 0C102.34 0 114.396 9.60772 118.104 22.7201L122.711 22.72C132.918 22.7197 141.429 22.7194 148.186 23.6278C155.317 24.5867 161.756 26.6959 166.93 31.8701C172.105 37.0442 174.214 43.4831 175.173 50.6148C176.081 57.3715 176.081 65.8826 176.08 76.0892L176.08 166.232C176.08 177.261 171.454 187.785 163.328 195.241C144.276 212.723 120.658 222.384 96.5591 224.224L96.5603 224.361V235.721C96.5603 240.426 92.7457 244.241 88.0402 244.241C83.3348 244.241 79.5202 240.426 79.5202 235.721V224.361L79.5213 224.224C55.4225 222.384 31.8043 212.723 12.7527 195.241C4.62621 187.785 3.58209e-05 177.261 3.58209e-05 166.232L1.2122e-05 76.0894C-0.000310865 65.8828 -0.000580199 57.3715 0.90783 50.6148C1.86667 43.4831 3.97589 37.0442 9.15004 31.8701C14.3242 26.6959 20.7631 24.5867 27.8948 23.6278C34.6515 22.7194 43.1627 22.7197 53.3694 22.72L57.9761 22.7201ZM76.6792 22.7201C79.2698 19.271 83.3945 17.04 88.0402 17.04C92.686 17.04 96.8106 19.271 99.4013 22.7201H76.6792ZM122.12 39.7601C133.072 39.7601 140.428 39.7782 145.915 40.5159C151.157 41.2207 153.401 42.4388 154.881 43.9192C156.362 45.3996 157.58 47.6432 158.285 52.8854C159.022 58.3727 159.04 65.729 159.04 76.6802V166.232C159.04 172.488 156.416 178.457 151.807 182.686C115.738 215.783 60.3428 215.783 24.2733 182.686C19.664 178.457 17.0401 172.488 17.0401 166.232V76.6801C17.0401 65.729 17.0582 58.3727 17.7959 52.8854C18.5007 47.6432 19.7188 45.3996 21.1992 43.9192C22.6796 42.4388 24.9231 41.2207 30.1654 40.5159C35.6527 39.7782 43.009 39.7601 53.9602 39.7601H122.12Z" fill="#F0073B"/>
</svg>
