<svg width="179" height="196" viewBox="0 0 179 196" fill="none" xmlns="http://www.w3.org/2000/svg">
<path fill-rule="evenodd" clip-rule="evenodd" d="M61.5127 19.3334C88.3875 -6.29897 131.841 -6.29897 158.716 19.3334C185.76 45.127 185.76 87.0754 158.716 112.869L86.1294 182.1C67.0415 200.305 36.2128 200.305 17.1249 182.1C-2.13188 163.734 -2.13189 133.827 17.1249 115.46L88.6675 47.2251C99.9684 36.4467 118.172 36.4467 129.473 47.2251C140.942 58.1647 140.942 76.0299 129.473 86.9695L57.4079 155.703C54.6752 158.309 50.3393 158.214 47.7235 155.492C45.1077 152.769 45.2025 148.449 47.9352 145.842L120 77.1091C125.835 71.5442 125.835 62.6504 120 57.0855C113.996 51.3595 104.144 51.3595 98.1401 57.0855L26.5976 125.321C12.9759 138.312 12.9759 159.248 26.5976 172.24C40.3882 185.393 62.8661 185.393 76.6567 172.24L149.244 103.008C170.652 82.5896 170.652 49.6127 149.244 29.1938C127.666 8.61377 92.5629 8.61377 70.9853 29.1938L12.498 84.9772C9.76524 87.5836 5.42941 87.4891 2.8136 84.7663C0.197802 82.0434 0.292579 77.7232 3.0253 75.1168L61.5127 19.3334Z" fill="#F0073B"/>
</svg>
