<svg width="95" height="104" viewBox="0 0 95 104" fill="none" xmlns="http://www.w3.org/2000/svg">
<path fill-rule="evenodd" clip-rule="evenodd" d="M47.5 33.8605C37.4102 33.8605 29.2308 41.9818 29.2308 52C29.2308 62.0182 37.4102 70.1395 47.5 70.1395C57.5898 70.1395 65.7692 62.0182 65.7692 52C65.7692 41.9818 57.5898 33.8605 47.5 33.8605ZM36.5385 52C36.5385 45.9891 41.4461 41.1163 47.5 41.1163C53.5539 41.1163 58.4615 45.9891 58.4615 52C58.4615 58.0109 53.5539 62.8837 47.5 62.8837C41.4461 62.8837 36.5385 58.0109 36.5385 52Z" fill="#F0073B"/>
<path fill-rule="evenodd" clip-rule="evenodd" d="M47.5 0C44.0674 0 40.9321 0.936448 37.5059 2.51712C34.1907 4.0466 30.3532 6.30306 25.5505 9.1271L21.8816 11.2844C17.0772 14.1093 13.2401 16.3654 10.2832 18.5238C7.22558 20.7557 4.88041 23.0402 3.18296 26.0344C1.48822 29.0239 0.723026 32.2204 0.35591 36.0133C-7.2305e-05 39.6912 -3.97874e-05 44.1952 8.66071e-07 49.8522V54.1478C-3.97874e-05 59.8048 -7.2305e-05 64.3088 0.35591 67.9867C0.723026 71.7796 1.48822 74.976 3.18296 77.9656C4.88041 80.9598 7.22558 83.2443 10.2832 85.4762C13.2401 87.6346 17.0773 89.8907 21.8816 92.7156L25.5506 94.873C30.3531 97.6969 34.1908 99.9534 37.5059 101.483C40.9321 103.064 44.0674 104 47.5 104C50.9326 104 54.0679 103.064 57.4941 101.483C60.8093 99.9534 64.6467 97.697 69.4494 94.8729L73.1183 92.7157C77.9225 89.8908 81.7599 87.6345 84.7168 85.4762C87.7744 83.2443 90.1196 80.9598 91.817 77.9656C93.5118 74.976 94.277 71.7796 94.6441 67.9867C95.0001 64.3088 95 59.8049 95 54.148V49.8524C95 44.1954 95.0001 39.6912 94.6441 36.0133C94.277 32.2204 93.5118 29.0239 91.817 26.0344C90.1196 23.0402 87.7744 20.7557 84.7168 18.5238C81.7599 16.3655 77.9228 14.1093 73.1185 11.2845L69.4495 9.12708C64.6468 6.30305 60.8093 4.0466 57.4941 2.51712C54.0679 0.936447 50.9326 0 47.5 0ZM29.1102 15.4667C34.1142 12.5244 37.6398 10.4562 40.5852 9.0973C43.4574 7.77223 45.5062 7.25581 47.5 7.25581C49.4938 7.25581 51.5426 7.77223 54.4148 9.0973C57.3602 10.4562 60.8858 12.5244 65.8898 15.4667L69.2326 17.4323C74.2359 20.3742 77.7584 22.4502 80.3883 24.3699C82.9508 26.2403 84.4331 27.8017 85.4488 29.5935C86.4673 31.39 87.0587 33.4924 87.3699 36.7074C87.6884 39.9981 87.6923 44.1542 87.6923 50.0344V53.9656C87.6923 59.8458 87.6884 64.0019 87.3699 67.2926C87.0587 70.5076 86.4673 72.61 85.4488 74.4065C84.4331 76.1983 82.9508 77.7597 80.3883 79.6301C77.7584 81.5498 74.2359 83.6258 69.2326 86.5677L65.8898 88.5333C60.8858 91.4756 57.3602 93.5438 54.4148 94.9027C51.5426 96.2278 49.4938 96.7442 47.5 96.7442C45.5062 96.7442 43.4574 96.2278 40.5852 94.9027C37.6398 93.5438 34.1142 91.4756 29.1102 88.5333L25.7673 86.5677C20.7641 83.6258 17.2416 81.5498 14.6117 79.6301C12.0492 77.7597 10.5669 76.1983 9.55115 74.4065C8.53269 72.61 7.94127 70.5076 7.63009 67.2926C7.31158 64.0019 7.30769 59.8458 7.30769 53.9656V50.0344C7.30769 44.1541 7.31158 39.9981 7.63009 36.7074C7.94127 33.4924 8.53269 31.39 9.55115 29.5935C10.5669 27.8017 12.0492 26.2403 14.6117 24.3699C17.2416 22.4502 20.7641 20.3742 25.7673 17.4323L29.1102 15.4667Z" fill="#F0073B"/>
</svg>
